<svg width="1320" height="10" viewBox="0 0 1320 10" fill="none" xmlns="http://www.w3.org/2000/svg">
<g clip-path="url(#clip0_349_3359)">
<rect width="3.14261" height="10.9991" transform="matrix(0.707098 0.707115 -0.707098 0.707115 7.77734 0.00219727)" fill="#D9D9D9"/>
<rect width="3.14261" height="10.9991" transform="matrix(0.707098 -0.707115 0.707098 0.707115 12 2.22437)" fill="#D9D9D9"/>
<rect width="3.14261" height="10.9991" transform="matrix(0.707098 0.707115 -0.707098 0.707115 31.7773 0.00219727)" fill="#D9D9D9"/>
<rect width="3.14261" height="10.9991" transform="matrix(0.707098 -0.707115 0.707098 0.707115 35.998 2.22437)" fill="#D9D9D9"/>
<rect width="3.14261" height="10.9991" transform="matrix(0.707098 0.707115 -0.707098 0.707115 55.7754 0.00219727)" fill="#D9D9D9"/>
<rect width="3.14261" height="10.9991" transform="matrix(0.707098 -0.707115 0.707098 0.707115 59.998 2.22437)" fill="#D9D9D9"/>
<rect width="3.14261" height="10.9991" transform="matrix(0.707098 0.707115 -0.707098 0.707115 79.7754 0.00219727)" fill="#D9D9D9"/>
<rect width="3.14261" height="10.9991" transform="matrix(0.707098 -0.707115 0.707098 0.707115 83.998 2.22437)" fill="#D9D9D9"/>
<rect width="3.14261" height="10.9991" transform="matrix(0.707098 0.707115 -0.707098 0.707115 103.773 0.00219727)" fill="#D9D9D9"/>
<rect width="3.14261" height="10.9991" transform="matrix(0.707098 -0.707115 0.707098 0.707115 107.996 2.22437)" fill="#D9D9D9"/>
<rect width="3.14261" height="10.9991" transform="matrix(0.707098 0.707115 -0.707098 0.707115 127.773 0.00219727)" fill="#D9D9D9"/>
<rect width="3.14261" height="10.9991" transform="matrix(0.707098 -0.707115 0.707098 0.707115 131.996 2.22437)" fill="#D9D9D9"/>
<rect width="3.14261" height="10.9991" transform="matrix(0.707098 0.707115 -0.707098 0.707115 151.773 0.00219727)" fill="#D9D9D9"/>
<rect width="3.14261" height="10.9991" transform="matrix(0.707098 -0.707115 0.707098 0.707115 155.994 2.22437)" fill="#D9D9D9"/>
<rect width="3.14261" height="10.9991" transform="matrix(0.707098 0.707115 -0.707098 0.707115 175.771 0.00219727)" fill="#D9D9D9"/>
<rect width="3.14261" height="10.9991" transform="matrix(0.707098 -0.707115 0.707098 0.707115 179.994 2.22437)" fill="#D9D9D9"/>
<rect width="3.14261" height="10.9991" transform="matrix(0.707098 0.707115 -0.707098 0.707115 199.771 0.00219727)" fill="#D9D9D9"/>
<rect width="3.14261" height="10.9991" transform="matrix(0.707098 -0.707115 0.707098 0.707115 203.994 2.22437)" fill="#D9D9D9"/>
<rect width="3.14261" height="10.9991" transform="matrix(0.707098 0.707115 -0.707098 0.707115 223.77 0.00219727)" fill="#D9D9D9"/>
<rect width="3.14261" height="10.9991" transform="matrix(0.707098 -0.707115 0.707098 0.707115 227.992 2.22437)" fill="#D9D9D9"/>
<rect width="3.14261" height="10.9991" transform="matrix(0.707098 0.707115 -0.707098 0.707115 247.77 0.00219727)" fill="#D9D9D9"/>
<rect width="3.14261" height="10.9991" transform="matrix(0.707098 -0.707115 0.707098 0.707115 251.992 2.22437)" fill="#D9D9D9"/>
<rect width="3.14261" height="10.9991" transform="matrix(0.707098 0.707115 -0.707098 0.707115 271.77 0.00219727)" fill="#D9D9D9"/>
<rect width="3.14261" height="10.9991" transform="matrix(0.707098 -0.707115 0.707098 0.707115 275.99 2.22437)" fill="#D9D9D9"/>
<rect width="3.14261" height="10.9991" transform="matrix(0.707098 0.707115 -0.707098 0.707115 295.768 0.00219727)" fill="#D9D9D9"/>
<rect width="3.14261" height="10.9991" transform="matrix(0.707098 -0.707115 0.707098 0.707115 299.99 2.22437)" fill="#D9D9D9"/>
<rect width="3.14261" height="10.9991" transform="matrix(0.707098 0.707115 -0.707098 0.707115 319.768 0.00219727)" fill="#D9D9D9"/>
<rect width="3.14261" height="10.9991" transform="matrix(0.707098 -0.707115 0.707098 0.707115 323.988 2.22437)" fill="#D9D9D9"/>
<rect width="3.14261" height="10.9991" transform="matrix(0.707098 0.707115 -0.707098 0.707115 343.766 0.00219727)" fill="#D9D9D9"/>
<rect width="3.14261" height="10.9991" transform="matrix(0.707098 -0.707115 0.707098 0.707115 347.988 2.22437)" fill="#D9D9D9"/>
<rect width="3.14261" height="10.9991" transform="matrix(0.707098 0.707115 -0.707098 0.707115 367.766 0.00219727)" fill="#D9D9D9"/>
<rect width="3.14261" height="10.9991" transform="matrix(0.707098 -0.707115 0.707098 0.707115 371.988 2.22437)" fill="#D9D9D9"/>
<rect width="3.14261" height="10.9991" transform="matrix(0.707098 0.707115 -0.707098 0.707115 391.766 0.00219727)" fill="#D9D9D9"/>
<rect width="3.14261" height="10.9991" transform="matrix(0.707098 -0.707115 0.707098 0.707115 395.986 2.22437)" fill="#D9D9D9"/>
<rect width="3.14261" height="10.9991" transform="matrix(0.707098 0.707115 -0.707098 0.707115 415.764 0.00219727)" fill="#D9D9D9"/>
<rect width="3.14261" height="10.9991" transform="matrix(0.707098 -0.707115 0.707098 0.707115 419.986 2.22437)" fill="#D9D9D9"/>
<rect width="3.14261" height="10.9991" transform="matrix(0.707098 0.707115 -0.707098 0.707115 439.764 0.00219727)" fill="#D9D9D9"/>
<rect width="3.14261" height="10.9991" transform="matrix(0.707098 -0.707115 0.707098 0.707115 443.984 2.22437)" fill="#D9D9D9"/>
<rect width="3.14261" height="10.9991" transform="matrix(0.707098 0.707115 -0.707098 0.707115 463.762 0.00219727)" fill="#D9D9D9"/>
<rect width="3.14261" height="10.9991" transform="matrix(0.707098 -0.707115 0.707098 0.707115 467.984 2.22437)" fill="#D9D9D9"/>
<rect width="3.14261" height="10.9991" transform="matrix(0.707098 0.707115 -0.707098 0.707115 487.762 0.00219727)" fill="#D9D9D9"/>
<rect width="3.14261" height="10.9991" transform="matrix(0.707098 -0.707115 0.707098 0.707115 491.984 2.22437)" fill="#D9D9D9"/>
<rect width="3.14261" height="10.9991" transform="matrix(0.707098 0.707115 -0.707098 0.707115 511.762 0.00219727)" fill="#D9D9D9"/>
<rect width="3.14261" height="10.9991" transform="matrix(0.707098 -0.707115 0.707098 0.707115 515.982 2.22437)" fill="#D9D9D9"/>
<rect width="3.14261" height="10.9991" transform="matrix(0.707098 0.707115 -0.707098 0.707115 535.76 0.00219727)" fill="#D9D9D9"/>
<rect width="3.14261" height="10.9991" transform="matrix(0.707098 -0.707115 0.707098 0.707115 539.982 2.22437)" fill="#D9D9D9"/>
<rect width="3.14261" height="10.9991" transform="matrix(0.707098 0.707115 -0.707098 0.707115 559.76 0.00219727)" fill="#D9D9D9"/>
<rect width="3.14261" height="10.9991" transform="matrix(0.707098 -0.707115 0.707098 0.707115 563.98 2.22437)" fill="#D9D9D9"/>
<rect width="3.14261" height="10.9991" transform="matrix(0.707098 0.707115 -0.707098 0.707115 583.758 0.00219727)" fill="#D9D9D9"/>
<rect width="3.14261" height="10.9991" transform="matrix(0.707098 -0.707115 0.707098 0.707115 587.98 2.22437)" fill="#D9D9D9"/>
<rect width="3.14261" height="10.9991" transform="matrix(0.707098 0.707115 -0.707098 0.707115 607.758 0.00219727)" fill="#D9D9D9"/>
<rect width="3.14261" height="10.9991" transform="matrix(0.707098 -0.707115 0.707098 0.707115 611.98 2.22437)" fill="#D9D9D9"/>
<rect width="3.14261" height="10.9991" transform="matrix(0.707098 0.707115 -0.707098 0.707115 631.756 0.00219727)" fill="#D9D9D9"/>
<rect width="3.14261" height="10.9991" transform="matrix(0.707098 -0.707115 0.707098 0.707115 635.979 2.22437)" fill="#D9D9D9"/>
<rect width="3.14261" height="10.9991" transform="matrix(0.707098 0.707115 -0.707098 0.707115 655.756 0.00219727)" fill="#D9D9D9"/>
<rect width="3.14261" height="10.9991" transform="matrix(0.707098 -0.707115 0.707098 0.707115 659.979 2.22437)" fill="#D9D9D9"/>
<rect width="3.14261" height="10.9991" transform="matrix(0.707098 0.707115 -0.707098 0.707115 679.754 0.00219727)" fill="#D9D9D9"/>
<rect width="3.14261" height="10.9991" transform="matrix(0.707098 -0.707115 0.707098 0.707115 683.977 2.22437)" fill="#D9D9D9"/>
<rect width="3.14261" height="10.9991" transform="matrix(0.707098 0.707115 -0.707098 0.707115 703.754 0.00219727)" fill="#D9D9D9"/>
<rect width="3.14261" height="10.9991" transform="matrix(0.707098 -0.707115 0.707098 0.707115 707.977 2.22437)" fill="#D9D9D9"/>
<rect width="3.14261" height="10.9991" transform="matrix(0.707098 0.707115 -0.707098 0.707115 727.754 0.00219727)" fill="#D9D9D9"/>
<rect width="3.14261" height="10.9991" transform="matrix(0.707098 -0.707115 0.707098 0.707115 731.975 2.22437)" fill="#D9D9D9"/>
<rect width="3.14261" height="10.9991" transform="matrix(0.707098 0.707115 -0.707098 0.707115 751.752 0.00219727)" fill="#D9D9D9"/>
<rect width="3.14261" height="10.9991" transform="matrix(0.707098 -0.707115 0.707098 0.707115 755.975 2.22437)" fill="#D9D9D9"/>
<rect width="3.14261" height="10.9991" transform="matrix(0.707098 0.707115 -0.707098 0.707115 775.752 0.00219727)" fill="#D9D9D9"/>
<rect width="3.14261" height="10.9991" transform="matrix(0.707098 -0.707115 0.707098 0.707115 779.973 2.22437)" fill="#D9D9D9"/>
<rect width="3.14261" height="10.9991" transform="matrix(0.707098 0.707115 -0.707098 0.707115 799.75 0.00219727)" fill="#D9D9D9"/>
<rect width="3.14261" height="10.9991" transform="matrix(0.707098 -0.707115 0.707098 0.707115 803.973 2.22437)" fill="#D9D9D9"/>
<rect width="3.14261" height="10.9991" transform="matrix(0.707098 0.707115 -0.707098 0.707115 823.75 0.00219727)" fill="#D9D9D9"/>
<rect width="3.14261" height="10.9991" transform="matrix(0.707098 -0.707115 0.707098 0.707115 827.973 2.22437)" fill="#D9D9D9"/>
<rect width="3.14261" height="10.9991" transform="matrix(0.707098 0.707115 -0.707098 0.707115 847.748 0.00219727)" fill="#D9D9D9"/>
<rect width="3.14261" height="10.9991" transform="matrix(0.707098 -0.707115 0.707098 0.707115 851.971 2.22437)" fill="#D9D9D9"/>
<rect width="3.14261" height="10.9991" transform="matrix(0.707098 0.707115 -0.707098 0.707115 871.748 0.00219727)" fill="#D9D9D9"/>
<rect width="3.14261" height="10.9991" transform="matrix(0.707098 -0.707115 0.707098 0.707115 875.971 2.22437)" fill="#D9D9D9"/>
<rect width="3.14261" height="10.9991" transform="matrix(0.707098 0.707115 -0.707098 0.707115 895.748 0.00219727)" fill="#D9D9D9"/>
<rect width="3.14261" height="10.9991" transform="matrix(0.707098 -0.707115 0.707098 0.707115 899.969 2.22437)" fill="#D9D9D9"/>
<rect width="3.14261" height="10.9991" transform="matrix(0.707098 0.707115 -0.707098 0.707115 919.746 0.00219727)" fill="#D9D9D9"/>
<rect width="3.14261" height="10.9991" transform="matrix(0.707098 -0.707115 0.707098 0.707115 923.969 2.22437)" fill="#D9D9D9"/>
<rect width="3.14261" height="10.9991" transform="matrix(0.707098 0.707115 -0.707098 0.707115 943.746 0.00219727)" fill="#D9D9D9"/>
<rect width="3.14261" height="10.9991" transform="matrix(0.707098 -0.707115 0.707098 0.707115 947.967 2.22437)" fill="#D9D9D9"/>
<rect width="3.14261" height="10.9991" transform="matrix(0.707098 0.707115 -0.707098 0.707115 967.744 0.00219727)" fill="#D9D9D9"/>
<rect width="3.14261" height="10.9991" transform="matrix(0.707098 -0.707115 0.707098 0.707115 971.967 2.22437)" fill="#D9D9D9"/>
<rect width="3.14261" height="10.9991" transform="matrix(0.707098 0.707115 -0.707098 0.707115 991.744 0.00219727)" fill="#D9D9D9"/>
<rect width="3.14261" height="10.9991" transform="matrix(0.707098 -0.707115 0.707098 0.707115 995.965 2.22437)" fill="#D9D9D9"/>
<rect width="3.14261" height="10.9991" transform="matrix(0.707098 0.707115 -0.707098 0.707115 1015.74 0.00219727)" fill="#D9D9D9"/>
<rect width="3.14261" height="10.9991" transform="matrix(0.707098 -0.707115 0.707098 0.707115 1019.96 2.22437)" fill="#D9D9D9"/>
<rect width="3.14261" height="10.9991" transform="matrix(0.707098 0.707115 -0.707098 0.707115 1039.74 0.00219727)" fill="#D9D9D9"/>
<rect width="3.14261" height="10.9991" transform="matrix(0.707098 -0.707115 0.707098 0.707115 1043.96 2.22437)" fill="#D9D9D9"/>
<rect width="3.14261" height="10.9991" transform="matrix(0.707098 0.707115 -0.707098 0.707115 1063.74 0.00219727)" fill="#D9D9D9"/>
<rect width="3.14261" height="10.9991" transform="matrix(0.707098 -0.707115 0.707098 0.707115 1067.96 2.22437)" fill="#D9D9D9"/>
<rect width="3.14261" height="10.9991" transform="matrix(0.707098 0.707115 -0.707098 0.707115 1087.74 0.00219727)" fill="#D9D9D9"/>
<rect width="3.14261" height="10.9991" transform="matrix(0.707098 -0.707115 0.707098 0.707115 1091.96 2.22437)" fill="#D9D9D9"/>
<rect width="3.14261" height="10.9991" transform="matrix(0.707098 0.707115 -0.707098 0.707115 1111.74 0.00219727)" fill="#D9D9D9"/>
<rect width="3.14261" height="10.9991" transform="matrix(0.707098 -0.707115 0.707098 0.707115 1115.96 2.22437)" fill="#D9D9D9"/>
<rect width="3.14261" height="10.9991" transform="matrix(0.707098 0.707115 -0.707098 0.707115 1135.74 0.00219727)" fill="#D9D9D9"/>
<rect width="3.14261" height="10.9991" transform="matrix(0.707098 -0.707115 0.707098 0.707115 1139.96 2.22437)" fill="#D9D9D9"/>
<rect width="3.14261" height="10.9991" transform="matrix(0.707098 0.707115 -0.707098 0.707115 1159.74 0.00219727)" fill="#D9D9D9"/>
<rect width="3.14261" height="10.9991" transform="matrix(0.707098 -0.707115 0.707098 0.707115 1163.96 2.22437)" fill="#D9D9D9"/>
<rect width="3.14261" height="10.9991" transform="matrix(0.707098 0.707115 -0.707098 0.707115 1183.74 0.00219727)" fill="#D9D9D9"/>
<rect width="3.14261" height="10.9991" transform="matrix(0.707098 -0.707115 0.707098 0.707115 1187.96 2.22437)" fill="#D9D9D9"/>
<rect width="3.14261" height="10.9991" transform="matrix(0.707098 0.707115 -0.707098 0.707115 1207.74 0.00219727)" fill="#D9D9D9"/>
<rect width="3.14261" height="10.9991" transform="matrix(0.707098 -0.707115 0.707098 0.707115 1211.96 2.22437)" fill="#D9D9D9"/>
<rect width="3.14261" height="10.9991" transform="matrix(0.707098 0.707115 -0.707098 0.707115 1231.74 0.00219727)" fill="#D9D9D9"/>
<rect width="3.14261" height="10.9991" transform="matrix(0.707098 -0.707115 0.707098 0.707115 1235.96 2.22437)" fill="#D9D9D9"/>
<rect width="3.14261" height="10.9991" transform="matrix(0.707098 0.707115 -0.707098 0.707115 1255.74 0.00219727)" fill="#D9D9D9"/>
<rect width="3.14261" height="10.9991" transform="matrix(0.707098 -0.707115 0.707098 0.707115 1259.96 2.22437)" fill="#D9D9D9"/>
<rect width="3.14261" height="10.9991" transform="matrix(0.707098 0.707115 -0.707098 0.707115 1279.73 0.00219727)" fill="#D9D9D9"/>
<rect width="3.14261" height="10.9991" transform="matrix(0.707098 -0.707115 0.707098 0.707115 1283.96 2.22437)" fill="#D9D9D9"/>
<rect width="3.14261" height="10.9991" transform="matrix(0.707098 0.707115 -0.707098 0.707115 1303.73 0.00219727)" fill="#D9D9D9"/>
<rect width="3.14261" height="10.9991" transform="matrix(0.707098 -0.707115 0.707098 0.707115 1307.96 2.22437)" fill="#D9D9D9"/>
<rect width="3.14261" height="10.9991" transform="matrix(0.707098 0.707115 -0.707098 0.707115 1327.73 0.00219727)" fill="#D9D9D9"/>
</g>
<defs>
<clipPath id="clip0_349_3359">
<rect width="1320" height="9.99984" fill="white" transform="translate(0 0.00219727)"/>
</clipPath>
</defs>
</svg>
