<svg width="114" height="120" viewBox="0 0 114 120" fill="none" xmlns="http://www.w3.org/2000/svg">
<g filter="url(#filter0_d_100_1296)">
<rect x="30" y="26" width="60" height="60" rx="30" fill="#EBC700" shape-rendering="crispEdges"/>
<path d="M52.5 49.8824L60 42.1177L67.5 49.8824" stroke="#28251C" stroke-width="3" stroke-linecap="square" stroke-linejoin="round"/>
<path d="M47.308 69.8823V60.0103H43.98V58.0263H53.036V60.0103H49.676V69.8823H47.308ZM59.16 70.1063C56.024 70.1063 53.864 67.7543 53.864 63.9143C53.864 60.0583 56.024 57.8183 59.16 57.8183C62.296 57.8183 64.456 60.0743 64.456 63.9143C64.456 67.7543 62.296 70.1063 59.16 70.1063ZM59.16 68.0583C60.92 68.0583 62.04 66.4423 62.04 63.9143C62.04 61.3703 60.92 59.8503 59.16 59.8503C57.4 59.8503 56.28 61.3703 56.28 63.9143C56.28 66.4423 57.4 68.0583 59.16 68.0583ZM66.7685 69.8823V58.0263H70.6565C73.2805 58.0263 75.2965 58.9543 75.2965 61.7543C75.2965 64.4583 73.2645 65.6743 70.7205 65.6743H69.1365V69.8823H66.7685ZM69.1365 63.8023H70.5605C72.1925 63.8023 72.9765 63.1143 72.9765 61.7543C72.9765 60.3783 72.1125 59.9143 70.4805 59.9143H69.1365V63.8023Z" fill="#28251C"/>
</g>
<defs>
<filter id="filter0_d_100_1296" x="0" y="0" width="120" height="120" filterUnits="userSpaceOnUse" color-interpolation-filters="sRGB">
<feFlood flood-opacity="0" result="BackgroundImageFix"/>
<feColorMatrix in="SourceAlpha" type="matrix" values="0 0 0 0 0 0 0 0 0 0 0 0 0 0 0 0 0 0 127 0" result="hardAlpha"/>
<feOffset dy="4"/>
<feGaussianBlur stdDeviation="15"/>
<feComposite in2="hardAlpha" operator="out"/>
<feColorMatrix type="matrix" values="0 0 0 0 0 0 0 0 0 0 0 0 0 0 0 0 0 0 0.16 0"/>
<feBlend mode="normal" in2="BackgroundImageFix" result="effect1_dropShadow_100_1296"/>
<feBlend mode="normal" in="SourceGraphic" in2="effect1_dropShadow_100_1296" result="shape"/>
</filter>
</defs>
</svg>
