<svg width="22" height="19" viewBox="0 0 22 19" fill="none" xmlns="http://www.w3.org/2000/svg">
<g id="Group 16557">
<path id="Vector" d="M9.22214 18C9.71306 18 10.111 17.602 10.111 17.1111C10.111 16.6202 9.71306 16.2222 9.22214 16.2222C8.73122 16.2222 8.33325 16.6202 8.33325 17.1111C8.33325 17.602 8.73122 18 9.22214 18Z" fill="#28251C" stroke="#28251C" stroke-width="2" stroke-linecap="square" stroke-linejoin="round"/>
<path id="Vector_2" d="M16.3332 18C16.8241 18 17.2221 17.602 17.2221 17.1111C17.2221 16.6202 16.8241 16.2222 16.3332 16.2222C15.8423 16.2222 15.4443 16.6202 15.4443 17.1111C15.4443 17.602 15.8423 18 16.3332 18Z" fill="#28251C" stroke="#28251C" stroke-width="2" stroke-linecap="square" stroke-linejoin="round"/>
<path id="Vector_3" d="M2.11108 2H5.2222C5.2222 2 5.58925 3.62527 5.82444 4.66667C6.29439 6.74755 6.93984 9.60551 7.31852 11.2822C7.50157 12.0927 8.22129 12.6667 9.05224 12.6667H16.685C17.5183 12.6667 18.2397 12.0879 18.4204 11.2746L19.8889 4.66667" stroke="#28251C" stroke-width="3" stroke-linecap="square" stroke-linejoin="round"/>
<path id="Vector_4" d="M19.0554 6H7.05542" stroke="#28251C" stroke-width="3" stroke-linecap="square" stroke-linejoin="round"/>
</g>
</svg>
