<svg width="25" height="24" viewBox="0 0 25 24" fill="none" xmlns="http://www.w3.org/2000/svg">
<path d="M6.25011 5H19.2501C19.3941 5.05051 19.5247 5.13331 19.6317 5.24206C19.7388 5.35082 19.8196 5.48264 19.8678 5.62742C19.9161 5.77221 19.9306 5.92612 19.9102 6.07737C19.8898 6.22861 19.835 6.37318 19.7501 6.5L14.7501 12V19L10.7501 16V12L5.75011 6.5C5.6652 6.37318 5.61044 6.22861 5.59004 6.07737C5.56963 5.92612 5.58411 5.77221 5.63237 5.62742C5.68063 5.48264 5.76139 5.35082 5.86847 5.24206C5.97554 5.13331 6.10609 5.05051 6.25011 5Z" stroke="#28251C" strokeWidth="3" strokeLinecap="round" stroke-linejoin="round"/>
</svg>
