<svg width="48" height="48" viewBox="0 0 48 48" fill="none" xmlns="http://www.w3.org/2000/svg">
<rect width="48" height="48" rx="8" fill="#575757"/>
<g clip-path="url(#clip0_146_635)">
<path d="M25 33C24.9812 33 23.1021 33 21.0165 32.9388C17.5272 32.8377 16.1506 32.6501 15.6096 32.5106C15.103 32.3798 14.6413 32.1251 14.2702 31.7718C13.8991 31.4184 13.6316 30.9788 13.4942 30.4965C13.3533 29.992 13.1639 28.9906 13.0619 27.0847C13 25.9449 13 25.0092 13 25C13 24.9908 13 24.0588 13.0619 22.9224C13.1186 21.8725 13.239 20.4272 13.4942 19.5035C13.6337 19.0178 13.9036 18.575 14.2775 18.2188C14.6454 17.8631 15.1046 17.6052 15.6096 17.4706C16.1451 17.3364 17.5165 17.156 21.009 17.0589C23.0976 17 24.9802 17 25 17C25.0198 17 26.9022 17 28.991 17.0612C32.4835 17.1623 33.8549 17.3499 34.3904 17.4894C34.897 17.6201 35.3588 17.8748 35.7299 18.2282C36.101 18.5815 36.3685 19.0212 36.5058 19.5035C36.6523 20.0135 36.8476 21.022 36.9456 22.9317C37.0049 24.0726 37 25.0094 37 25.0186C37 25.0279 37 25.9598 36.9381 27.0964C36.8818 28.1462 36.7602 29.5914 36.5056 30.5153C36.3682 30.9976 36.1007 31.4373 35.7296 31.7906C35.3585 32.1439 34.8968 32.3987 34.3902 32.5294C33.8549 32.6636 32.4833 32.8438 28.9908 32.9411C26.9022 33 25.0188 33 25 33ZM22.6079 21.5741V28.4259L28.855 25L22.6079 21.5741Z" fill="white"/>
</g>
<defs>
<clipPath id="clip0_146_635">
<rect width="24" height="16" fill="white" transform="translate(13 17)"/>
</clipPath>
</defs>
</svg>
