<svg width="48" height="48" viewBox="0 0 48 48" fill="none" xmlns="http://www.w3.org/2000/svg">
<rect width="48" height="48" rx="8" fill="#575757"/>
<g clip-path="url(#clip0_146_631)">
<path d="M20.0301 13.0842C18.7533 13.1444 17.8814 13.3482 17.1191 13.6477C16.3303 13.9551 15.6616 14.3677 14.9963 15.0354C14.3311 15.703 13.9214 16.3722 13.6161 17.1622C13.3207 17.9262 13.1205 18.7988 13.0641 20.0763C13.0077 21.3538 12.9952 21.7645 13.0015 25.0232C13.0077 28.2819 13.0221 28.6904 13.084 29.9706C13.145 31.2471 13.348 32.1188 13.6475 32.8813C13.9555 33.6702 14.3675 34.3386 15.0355 35.0041C15.7034 35.6696 16.372 36.0783 17.164 36.3841C17.9272 36.6791 18.8001 36.8802 20.0774 36.9361C21.3547 36.992 21.7658 37.005 25.0235 36.9987C28.2813 36.9925 28.6915 36.9781 29.9714 36.9174C31.2513 36.8566 32.1184 36.6522 32.8811 36.3541C33.67 36.0455 34.3389 35.6341 35.0039 34.9659C35.669 34.2978 36.0784 33.6282 36.3835 32.8376C36.6791 32.0744 36.88 31.2015 36.9355 29.9252C36.9914 28.6443 37.0046 28.2354 36.9983 24.9771C36.9921 21.7189 36.9775 21.3104 36.9167 20.0307C36.856 18.751 36.6527 17.882 36.3535 17.119C36.0451 16.3302 35.6335 15.6622 34.9658 14.9962C34.2981 14.3302 33.628 13.921 32.8377 13.6167C32.074 13.3213 31.2016 13.1199 29.9243 13.0647C28.6471 13.0095 28.2359 12.9954 24.977 13.0016C21.718 13.0078 21.31 13.0218 20.0301 13.0842ZM20.1703 34.7773C19.0003 34.7264 18.365 34.532 17.9416 34.3693C17.381 34.1533 16.9816 33.8922 16.5597 33.4743C16.1378 33.0565 15.8786 32.6557 15.6597 32.0962C15.4953 31.6729 15.2973 31.0383 15.2426 29.8683C15.1831 28.6038 15.1706 28.2241 15.1636 25.0203C15.1567 21.8166 15.1689 21.4374 15.2243 20.1723C15.2743 19.0033 15.4699 18.3673 15.6323 17.9442C15.8483 17.3828 16.1085 16.9842 16.5273 16.5625C16.9461 16.1408 17.3457 15.8811 17.9056 15.6622C18.3285 15.4971 18.9631 15.3008 20.1326 15.2451C21.3981 15.1851 21.7773 15.1731 24.9806 15.1662C28.1839 15.1592 28.564 15.1712 29.83 15.2269C30.9991 15.2778 31.6353 15.4714 32.0579 15.6349C32.6188 15.8509 33.0179 16.1103 33.4396 16.5298C33.8613 16.9494 34.1212 17.3475 34.3401 17.9086C34.5055 18.3303 34.7018 18.9646 34.757 20.1349C34.8172 21.4004 34.8309 21.7798 34.8367 24.9829C34.8424 28.1859 34.8311 28.5663 34.7757 29.8309C34.7246 31.0009 34.5307 31.6364 34.3677 32.0602C34.1517 32.6206 33.8913 33.0202 33.4723 33.4417C33.0532 33.8631 32.6541 34.1228 32.0939 34.3417C31.6715 34.5066 31.0363 34.7034 29.8677 34.7591C28.6022 34.8186 28.223 34.831 25.0185 34.838C21.814 34.845 21.436 34.832 20.1705 34.7773M29.9529 18.5866C29.9534 18.8715 30.0383 19.1498 30.197 19.3863C30.3556 19.6229 30.5808 19.8071 30.8442 19.9156C31.1075 20.0241 31.3971 20.0521 31.6764 19.9961C31.9556 19.94 32.212 19.8024 32.413 19.6006C32.614 19.3988 32.7507 19.142 32.8058 18.8625C32.8608 18.5831 32.8317 18.2936 32.7222 18.0306C32.6127 17.7677 32.4277 17.5431 32.1906 17.3854C31.9534 17.2276 31.6748 17.1437 31.39 17.1442C31.0082 17.145 30.6423 17.2974 30.3728 17.5679C30.1033 17.8384 29.9523 18.2048 29.9529 18.5866ZM18.8385 25.0122C18.8452 28.4154 21.6091 31.1679 25.0115 31.1614C28.414 31.155 31.1685 28.3914 31.162 24.9882C31.1555 21.585 28.391 18.8317 24.988 18.8384C21.5851 18.8451 18.832 21.6094 18.8385 25.0122ZM20.9999 25.0078C20.9984 24.2167 21.2314 23.4429 21.6697 22.7842C22.1079 22.1255 22.7316 21.6116 23.4619 21.3074C24.1923 21.0032 24.9964 20.9224 25.7726 21.0752C26.5489 21.228 27.2624 21.6075 27.8229 22.1659C28.3834 22.7242 28.7658 23.4362 28.9217 24.2118C29.0776 24.9874 28.9999 25.7919 28.6986 26.5234C28.3973 27.2549 27.8859 27.8806 27.2289 28.3215C26.572 28.7623 25.7991 28.9984 25.0079 29C24.4826 29.0011 23.9622 28.8987 23.4765 28.6987C22.9908 28.4986 22.5492 28.2049 22.177 27.8342C21.8048 27.4634 21.5093 27.023 21.3073 26.5381C21.1054 26.0531 21.0009 25.5332 20.9999 25.0078Z" fill="white"/>
</g>
<defs>
<clipPath id="clip0_146_631">
<rect width="24" height="24" fill="white" transform="translate(13 13)"/>
</clipPath>
</defs>
</svg>
