<svg xmlns="http://www.w3.org/2000/svg" width="24" height="24" viewBox="0 0 24 24" fill="none">
  <g clip-path="url(#clip0_26_1269)">
    <path d="M7.0301 0.0841693C5.7533 0.144409 4.88138 0.348169 4.11914 0.647689C3.33026 0.955129 2.66162 1.36769 1.99634 2.03537C1.33106 2.70305 0.921379 3.37217 0.616099 4.16225C0.320659 4.92617 0.120499 5.79881 0.0640995 7.07633C0.00769946 8.35385 -0.00478054 8.76449 0.00145946 12.0232C0.00769946 15.2819 0.0220995 15.6904 0.0840195 16.9706C0.144979 18.2471 0.348019 19.1188 0.647539 19.8813C0.955459 20.6702 1.36754 21.3386 2.03546 22.0041C2.70338 22.6696 3.37202 23.0783 4.16402 23.3841C4.92722 23.6791 5.8001 23.8802 7.07738 23.9361C8.35466 23.992 8.76578 24.005 12.0235 23.9987C15.2813 23.9925 15.6915 23.9781 16.9714 23.9174C18.2513 23.8566 19.1184 23.6522 19.8811 23.3541C20.67 23.0455 21.3389 22.6341 22.0039 21.9659C22.669 21.2978 23.0784 20.6282 23.3835 19.8376C23.6791 19.0744 23.88 18.2015 23.9355 16.9252C23.9914 15.6443 24.0046 15.2354 23.9983 11.9771C23.9921 8.71889 23.9775 8.31041 23.9167 7.03073C23.856 5.75105 23.6527 4.88201 23.3535 4.11905C23.0451 3.33017 22.6335 2.66225 21.9658 1.99625C21.2981 1.33025 20.628 0.921049 19.8377 0.616729C19.074 0.321289 18.2016 0.119929 16.9243 0.0647293C15.6471 0.00952928 15.2359 -0.00463073 11.977 0.00160927C8.71802 0.00784927 8.31002 0.0217693 7.0301 0.0841693ZM7.17026 21.7773C6.00026 21.7264 5.36498 21.532 4.94162 21.3693C4.38098 21.1533 3.98162 20.8922 3.5597 20.4743C3.13778 20.0565 2.87858 19.6557 2.6597 19.0962C2.4953 18.6729 2.2973 18.0383 2.24258 16.8683C2.18306 15.6038 2.17058 15.2241 2.16362 12.0203C2.15666 8.81657 2.1689 8.43737 2.22434 7.17233C2.27426 6.00329 2.46986 5.36729 2.63234 4.94417C2.84834 4.38281 3.1085 3.98417 3.5273 3.56249C3.9461 3.14081 4.3457 2.88113 4.90562 2.66225C5.3285 2.49713 5.96306 2.30081 7.13258 2.24513C8.3981 2.18513 8.7773 2.17313 11.9806 2.16617C15.1839 2.15921 15.564 2.17121 16.83 2.22689C17.9991 2.27777 18.6353 2.47145 19.0579 2.63489C19.6188 2.85089 20.0179 3.11033 20.4396 3.52985C20.8613 3.94937 21.1212 4.34753 21.3401 4.90865C21.5055 5.33033 21.7018 5.96465 21.757 7.13489C21.8172 8.40041 21.8309 8.77985 21.8367 11.9829C21.8424 15.1859 21.8311 15.5663 21.7757 16.8309C21.7246 18.0009 21.5307 18.6364 21.3677 19.0602C21.1517 19.6206 20.8913 20.0202 20.4723 20.4417C20.0532 20.8631 19.6541 21.1228 19.0939 21.3417C18.6715 21.5066 18.0363 21.7034 16.8677 21.7591C15.6022 21.8186 15.223 21.831 12.0185 21.838C8.81402 21.845 8.43602 21.832 7.1705 21.7773M16.9529 5.58665C16.9534 5.87147 17.0383 6.14976 17.197 6.38631C17.3556 6.62287 17.5808 6.80706 17.8442 6.9156C18.1075 7.02413 18.3971 7.05214 18.6764 6.99607C18.9556 6.94 19.212 6.80238 19.413 6.60061C19.614 6.39884 19.7507 6.14198 19.8058 5.86253C19.8608 5.58307 19.8317 5.29357 19.7222 5.03063C19.6127 4.7677 19.4277 4.54314 19.1906 4.38537C18.9534 4.22759 18.6748 4.14368 18.39 4.14425C18.0082 4.14501 17.6423 4.29739 17.3728 4.56788C17.1033 4.83837 16.9523 5.20482 16.9529 5.58665ZM5.8385 12.0122C5.84522 15.4154 8.60906 18.1679 12.0115 18.1614C15.414 18.155 18.1685 15.3914 18.162 11.9882C18.1555 8.58497 15.391 5.83169 11.988 5.83841C8.58506 5.84513 5.83202 8.60945 5.8385 12.0122ZM7.99994 12.0078C7.99837 11.2167 8.23145 10.4429 8.66968 9.7842C9.10791 9.12552 9.73162 8.61158 10.4619 8.30738C11.1923 8.00318 11.9964 7.92237 12.7726 8.07518C13.5489 8.22799 14.2624 8.60755 14.8229 9.16586C15.3834 9.72417 15.7658 10.4362 15.9217 11.2118C16.0776 11.9874 15.9999 12.7919 15.6986 13.5234C15.3973 14.2549 14.8859 14.8806 14.2289 15.3215C13.572 15.7623 12.7991 15.9984 12.0079 16C11.4826 16.0011 10.9622 15.8987 10.4765 15.6987C9.99076 15.4986 9.54918 15.2049 9.17699 14.8342C8.8048 14.4634 8.50929 14.023 8.30733 13.5381C8.10537 13.0531 8.00092 12.5332 7.99994 12.0078Z" fill="white"/>
  </g>
  <defs>
    <clipPath id="clip0_26_1269">
      <rect width="24" height="24" fill="white"/>
    </clipPath>
  </defs>
</svg>
