<svg xmlns="http://www.w3.org/2000/svg" width="285" height="211" viewBox="0 0 285 211" fill="none">
  <g opacity="0.2">
    <path d="M237.391 22C257.117 44.3012 269.087 73.5954 269.087 105.679C269.087 137.763 257.117 167.057 237.391 189.357M47.2121 22C27.4853 44.3012 15.5156 73.5954 15.5156 105.679C15.5156 137.763 27.4853 167.057 47.2121 189.357" stroke="white" strokeWidth="30" strokeLinecap="square" stroke-linejoin="round"/>
    <path d="M192.192 65.1069C202.174 76.0547 208.23 90.4354 208.23 106.185C208.23 121.935 202.174 136.317 192.192 147.264M95.9613 65.1069C85.9796 76.0547 79.9229 90.4354 79.9229 106.185C79.9229 121.935 85.9796 136.317 95.9613 147.264" stroke="white" strokeWidth="30" strokeLinecap="square" stroke-linejoin="round"/>
    <circle cx="144.33" cy="107.707" r="14.2" fill="white"/>
  </g>
</svg>
