<svg xmlns="http://www.w3.org/2000/svg" width="304" height="427" viewBox="0 0 304 427" fill="none">
  <path opacity="0.2" d="M46.9946 320.148L29.9692 335.024L48.105 348.524L112.738 396.636L122.843 404.159L133.458 397.374C175.022 370.812 210.491 334.861 239.955 289.911C269.76 244.44 285.246 197.6 285.246 149.653C285.246 111.259 274.943 78.8605 252.075 54.995C229.659 30.8138 200.861 18.7539 167.113 18.7539C135.738 18.7539 108.177 29.9817 85.2922 51.8586C61.7989 73.5119 50.1551 101.533 50.1551 134.398C50.1551 160.165 56.5417 183.119 70.4225 202.087C80.726 216.166 94.5396 227.204 111.218 235.53C105.397 246.848 97.3085 259.541 86.7157 273.644L86.5883 273.814L86.4648 273.987C71.1797 295.355 58.0201 310.514 46.9946 320.148Z" stroke="white" stroke-width="36.4921"/>
</svg>
