<svg xmlns="http://www.w3.org/2000/svg" width="171" height="82" viewBox="0 0 171 82" fill="none">
  <path d="M58.9148 29.0141C57.7795 28.014 56.6451 26.9803 55.1994 26.7037C52.2763 25.6368 49.3537 24.361 46.122 24.2921C44.8146 24.1876 43.99 22.947 42.9921 22.1546C41.1017 21.8445 39.5882 20.4318 38.0413 19.4329C36.7678 18.5708 38.0735 17.1229 37.388 16.1248C35.1873 15.0554 36.973 12.2296 34.9096 11.2299C34.1546 10.9193 33.3288 10.644 32.6751 9.98971C31.781 9.33499 31.1624 10.4719 30.3714 10.5752C28.9283 13.401 28.8587 17.02 26.1426 19.4333C25.8322 19.9143 26.3817 20.3629 26.1426 20.8464L23.2521 23.0515C21.121 22.6037 20.8458 25.2226 19.6419 26.2911C17.5455 27.4634 15.8934 29.4263 14.0361 31.0123C12.2144 32.2538 11.2839 34.2171 9.49782 35.3209C8.80892 35.872 7.39804 35.7683 7.50149 36.9754C7.6753 37.9402 8.56727 37.492 9.3257 37.6297C10.6654 37.0786 11.0439 35.5274 11.8702 34.4933L12.5235 34.3216C14.6894 35.1476 16.7196 34.356 18.4735 33.1498C19.4358 32.2878 20.4664 31.2201 21.6026 30.6682C22.8753 30.2195 23.5277 28.806 24.903 28.7031C25.385 28.7375 25.4189 29.2542 25.4867 29.5992C24.869 31.4945 25.0064 33.7697 24.7664 35.7339C25.385 37.0782 25.1789 38.7666 26.0044 40.0077C26.3126 41.3175 27.6548 41.1115 28.6175 41.3515C29.2708 41.2831 29.5464 40.7316 29.9597 40.2834C30.6808 40.2146 30.3714 41.0762 30.6808 41.4216C30.3023 43.1105 30.7495 44.7628 30.6122 46.385C30.0284 47.3486 29.5116 48.5208 28.3767 49.0362C27.5861 49.003 26.5551 49.8995 26.0044 48.8654C25.9009 48.5556 26.1426 48.3823 26.3126 48.2106C28.0664 47.5211 28.5132 45.5565 29.2021 44.0741C29.4082 43.7644 29.6138 43.0404 29.0292 42.8343C28.308 42.6261 27.7921 43.5226 27.1388 43.7295C25.694 44.5568 25.212 42.0755 23.6655 42.593C23.0122 43.0748 22.9087 43.9369 22.8409 44.7292C22.8062 46.0034 23.1165 47.5206 24.3544 48.141C23.4594 48.8989 22.9435 50.0376 23.4238 51.1728C23.9406 52.8281 25.6245 54.138 27.2435 54.6546C27.7595 54.6546 28.0664 54.1019 28.5493 53.9311C31.4032 53.035 34.4297 52.518 37.3884 51.8633C39.6573 50.864 40.5854 53.7577 42.8208 53.1039C44.6781 52.6905 44.9528 50.6235 45.2271 49.0362C45.1932 47.7628 43.784 47.0388 42.9925 46.3144C41.479 45.2812 39.4852 46.0391 38.0417 46.6246C37.8687 46.4869 37.3884 46.6246 37.5597 46.2103C38.7628 45.2459 40.2076 44.7292 41.8233 44.7292C42.8212 44.4539 42.9577 43.351 43.335 42.593C43.268 41.3859 42.2014 40.5583 41.3421 39.7668C40.172 38.4917 39.4161 40.594 38.2808 40.594C37.2506 41.0766 36.0106 41.2831 35.1517 42.0063C34.8778 41.7309 34.4984 41.4548 34.6714 41.0065C34.8079 40.0769 35.083 39.18 35.3247 38.284C37.0777 37.2847 39.69 39.7663 40.5154 37.1122C40.4823 36.1141 40.2072 35.1132 40.6884 34.2171C39.5191 32.8388 38.0057 34.4244 36.5617 34.2171C36.3888 34.3212 36.1145 34.4928 36.1501 34.7337C37.1107 35.3549 38.2117 34.1835 39.2097 34.803C39.2783 35.0099 39.0367 35.08 38.935 35.2181C37.8683 35.0804 36.5948 35.0804 35.632 35.5618C34.1194 35.2517 32.8137 35.9761 31.5075 36.562C30.716 36.7005 29.6494 37.3883 29.1335 36.2858C28.8918 36.0453 28.8918 35.4594 29.1335 35.2185C30.6808 34.4937 32.4347 34.2876 34.0868 33.8046C34.8774 33.5641 36.3209 34.1143 36.4591 32.9773C36.3209 31.9101 37.0777 31.2205 37.1463 30.2548C37.0446 29.8405 36.5617 29.4964 36.1501 29.7725C34.8079 30.9099 32.6751 29.4271 31.6093 31.2545C30.5087 31.1857 29.6494 32.7713 28.6175 31.8412C28.4802 27.912 33.0193 29.015 34.9096 26.7746C35.8393 26.2563 35.9067 25.2234 36.0458 24.293C37.4567 24.9817 38.0057 26.6697 39.5191 27.1192C43.6797 27.3937 45.2962 33.0814 49.3533 33.1498C50.7642 33.2871 51.6235 32.0473 52.8275 31.6675L54.1332 31.8408C55.5093 31.7363 56.6099 30.9095 57.3657 29.7721C57.7791 29.7721 58.2938 29.7041 58.6715 29.8401C59.0174 29.7368 59.0869 29.289 58.9148 29.0141ZM30.7856 24.05C30.2349 24.0856 29.512 24.361 29.1339 24.1545C29.3391 23.4296 30.1301 23.0158 30.6813 22.5697C31.265 21.8444 32.4351 22.1546 33.0197 22.7414C32.6751 23.6378 31.5079 23.6378 30.7856 24.05ZM69.8584 42.016C69.4459 42.4634 68.6892 42.2565 68.2089 42.0836C66.9701 42.9112 65.6288 43.5311 64.4943 44.4973C65.0442 45.7719 66.0408 44.1179 66.9701 44.1527C67.7964 44.9782 66.1447 44.9094 66.1447 45.4961C66.1447 45.6686 66.3507 45.7375 66.455 45.8059C67.6243 44.9782 69.0326 46.1853 70.0305 44.9094C72.7811 43.9445 74.6044 40.7401 77.4584 39.9469C79.1427 41.1195 79.7282 43.0502 80.7596 44.6685C81.585 45.4957 82.4465 46.9772 83.8887 46.3225C85.952 47.4943 87.945 45.5998 90.1478 45.6686C92.4188 45.1511 93.7597 47.1506 95.7518 47.0461C97.1983 47.1157 98.6067 46.15 99.1573 44.9094C98.9513 43.0833 99.0547 41.0839 97.4044 39.9469C98.1942 38.4658 100.257 39.7753 101.222 38.5351C102.15 36.6384 101.601 34.7427 101.049 32.8477L97.989 29.2627C94.9616 26.6795 90.5963 28.7465 87.6711 30.3657C86.5706 30.7451 85.6765 31.5383 84.4742 31.676C83.9913 31.2965 84.3021 30.607 84.1995 30.0895C86.3306 28.1262 83.0294 25.0242 85.7803 23.4046C86.1937 22.096 87.7071 22.3016 88.6691 21.8198C89.4606 21.785 90.5255 21.1991 91.1449 21.9915C92.4192 22.0271 93.8284 21.785 94.8611 20.9242C95.1685 19.9924 95.1002 18.7858 94.2748 18.0971C93.552 17.614 92.8656 17.0986 91.9025 17.201C88.2922 18.1659 84.7146 19.3029 80.8974 19.752C79.5908 19.9236 78.6628 18.8899 77.4588 19.0271C76.6673 19.3029 76.2557 19.9593 76.1183 20.7513C77.0807 21.8202 77.9061 23.0613 79.0066 23.8864C79.3852 25.404 80.3827 26.8511 79.7625 28.5391C79.1092 29.7466 77.0807 29.4012 76.9433 31.0901C76.4969 33.3652 75.741 35.5372 73.882 37.1219C71.9222 37.9139 70.4782 40.1895 68.5192 41.1888C68.7931 42.5671 69.652 40.7049 70.4426 41.2576C70.3404 41.5682 69.9631 41.7386 69.8584 42.016ZM89.0137 35.6396C90.2508 34.6743 91.7651 33.709 92.5557 32.2627C93.1039 32.2627 93.6894 32.5028 93.7928 33.0903C93.8615 34.1245 93.4833 35.3643 92.4515 35.8809C91.3865 36.0186 91.2144 37.2248 90.5611 37.8791L87.5007 40.6025C86.8457 40.4296 86.777 39.5683 86.6066 38.9476C86.8131 37.5341 88.3944 36.8802 89.0137 35.6396ZM148.125 19.95C146.026 19.9138 143.724 18.5368 141.764 19.8454C140.767 20.0188 139.768 20.6387 138.805 20.2597C138.497 19.0539 137.911 17.5371 138.944 16.4686C138.84 16.0887 138.254 15.9171 138.289 15.4701C138.462 13.9189 139.734 12.3669 138.805 10.7485C138.84 10.1274 139.045 9.57547 138.634 9.02398C138.221 8.05868 137.189 7.54161 136.4 6.95614C134.266 5.99083 133.716 8.57617 132.683 9.6103C131.894 11.3676 133.132 13.0224 132.856 14.8133C131.685 16.2952 129.968 16.8824 128.626 17.8821C128.144 18.1923 127.869 17.6068 127.663 17.2962C126.529 17.2605 125.943 15.7794 124.603 16.2264C124.258 16.4337 123.915 16.7791 123.949 17.227C124.293 18.7777 124.671 20.4666 126.083 21.4315C126.802 21.5003 127.524 22.1542 127.8 22.7409C126.632 23.8779 125.119 24.154 123.949 25.2222C121.748 24.912 120.477 27.358 118.654 28.1168C118.24 29.1518 117.483 30.013 117.242 31.116C117.483 31.5302 117.692 32.1161 118.24 32.2538C120.855 33.7697 120.2 30.1511 121.714 29.2886C124.188 28.1856 126.563 26.8422 129.142 25.9806C131.308 23.7755 134.575 24.1188 137.292 23.1548C139.424 21.7068 142.623 21.3962 145.062 22.1899C147.127 22.0871 148.915 23.1548 150.6 24.1549L150.668 24.3954C149.705 25.5332 148.298 26.3256 148.298 27.98C149.12 29.4263 150.566 29.0146 152.01 29.2202C152.562 28.9457 153.042 29.0146 153.662 29.1174C154.9 29.3247 155.14 27.9447 155.449 27.1524C156.033 26.4292 155.725 25.4295 155.311 24.7404C153.008 22.8786 150.705 21.0869 148.125 19.95ZM131.686 22.2595C131.583 22.0871 131.275 22.2596 131.206 22.0182C131.067 21.5343 131.618 21.7072 131.791 21.4323C132.1 21.2938 132.27 21.7769 132.443 21.8449C132.513 22.2927 131.928 22.0866 131.686 22.2595Z" fill="#694B3A"/>
  <path d="M146.647 9.85218C145.925 9.29985 145.031 9.19661 144.067 9.26629C143.036 9.3691 141.764 9.64485 141.351 10.6106C142.143 11.8848 144.273 12.0925 144.583 13.919C144.067 15.7456 142.107 17.5372 140.182 17.7777C140.49 18.7783 141.73 17.434 142.417 18.1928C143.173 18.5025 143.792 18.0543 144.308 17.6409C145.511 16.3315 148.4 15.6767 147.783 13.5044C148.641 12.0577 147.404 10.919 146.647 9.85218ZM125.085 50.0377C125.428 51.0357 126.564 51.173 127.39 51.5528C130.174 52.5869 131.928 50.1061 134.267 49.5538C136.193 50.2782 137.361 48.5889 139.219 48.8991C140.285 49.6575 141.765 48.6586 142.588 50.0377C142.83 50.3479 142.453 51.0026 142.933 51.1402C144.723 50.5531 147.267 50.6924 147.886 48.3136C148.606 47.3134 148.299 45.7291 147.713 44.7634C146.338 43.9026 145.34 41.9384 143.656 42.1109C142.762 43.0061 141.592 42.3862 140.699 43.281C139.701 43.3175 138.703 43.592 137.879 43.0065C137.707 42.489 137.947 41.9384 138.394 41.5246C140.045 40.3196 142.899 40.6642 143.415 38.1477C142.83 37.3196 141.936 36.5625 140.87 36.6653C140.046 36.3556 139.116 37.6655 138.704 36.4937C139.116 36.0794 138.635 35.6673 138.806 35.1485C139.632 33.7371 141.317 34.8397 142.418 33.9088C142.831 33.4945 142.693 32.6673 142.523 32.1859C142.727 30.9784 141.007 31.8414 141.18 30.7036C141.592 30.2205 141.904 29.7047 142.523 29.5313C142.762 28.7041 143.965 28.6013 144 27.7044C143.587 26.9813 143.725 26.0499 143.587 25.2236C142.762 24.0509 141.489 23.5696 140.114 23.5696C137.707 24.568 135.059 24.913 132.755 26.1545C131.792 26.946 130.45 27.0497 129.213 26.9808C128.181 27.5319 128.008 28.6009 127.562 29.4629C127.287 30.5999 127.974 31.5308 128.559 32.426C129.418 34.5971 132.033 35.1825 133.269 36.9759C133.476 37.5958 133.236 38.1813 132.858 38.6304C131.619 40.111 130.347 38.3206 128.971 38.3899C128.318 38.6992 128.524 39.4928 128.49 40.1115C128.663 41.5607 130.278 42.0077 131.206 42.9381C131.481 43.3184 132.136 43.007 132.271 43.5928C132.342 44.1099 132.823 44.8335 132.033 45.1789C131.068 45.5574 129.624 45.5574 128.73 45.006C128.283 45.212 128.283 45.7644 128.318 46.2466C128.937 46.9013 129.83 46.8665 130.622 47.0738C130.896 46.9013 131.276 46.4191 131.619 46.8325C131.824 47.0037 131.584 47.2119 131.447 47.3147C130.312 47.5556 128.765 48.04 127.905 46.9013C127.491 46.2823 127.322 45.4546 126.839 45.006L125.017 47.0738C125.12 48.0387 124.397 49.1417 125.085 50.0377ZM133.028 30.3586V29.8746C134.096 28.6697 135.333 27.5667 136.881 27.1521L137.052 27.2897C136.881 28.8762 134.817 29.4621 134.817 31.1161C134.129 31.0813 133.647 30.5646 133.028 30.3586Z" fill="#694B3A"/>
  <path d="M24.6692 69.5333H24.7197C25.0681 69.1539 26.563 67.6256 26.8593 67.2768C27.1459 66.9382 27.371 66.682 27.371 66.5073C27.371 66.3943 27.3303 66.3221 27.2277 66.3017C27.1357 66.2813 27.095 66.2609 27.095 66.1997C27.095 66.1279 27.1454 66.1075 27.2582 66.1075C27.4736 66.1075 28.0366 66.1381 28.313 66.1381C28.6301 66.1381 29.1931 66.1075 29.5102 66.1075C29.6128 66.1075 29.684 66.1279 29.684 66.1997C29.684 66.2715 29.6327 66.2919 29.531 66.2919C29.3877 66.2919 29.132 66.3331 28.9366 66.4054C28.6203 66.5282 28.2719 66.7436 27.8322 67.1744C27.5151 67.4824 25.969 69.0213 25.6205 69.3901C25.9898 69.8723 27.9963 72.0366 28.3944 72.4164C28.8454 72.8473 29.3058 73.3087 29.8582 73.5237C30.1656 73.6469 30.3699 73.6775 30.4925 73.6775C30.5645 73.6775 30.6256 73.6983 30.6256 73.7595C30.6256 73.8313 30.5751 73.8618 30.3797 73.8618H29.4894C29.1821 73.8618 28.9985 73.8619 28.784 73.8415C28.2307 73.79 27.9543 73.5644 27.5147 73.1748C27.0636 72.7746 25.0474 70.4051 24.8329 70.1073L24.7192 69.9539H24.6692V70.8873C24.6692 71.831 24.6692 72.6412 24.6997 73.0822C24.7197 73.3699 24.8125 73.595 25.0681 73.6367C25.2123 73.6566 25.4365 73.6775 25.5701 73.6775C25.6519 73.6775 25.7028 73.708 25.7028 73.7595C25.7028 73.8313 25.621 73.8618 25.5082 73.8618C24.9359 73.8618 24.2911 73.8313 24.035 73.8313C23.7997 73.8313 23.1549 73.8618 22.7449 73.8618C22.6123 73.8618 22.5406 73.8313 22.5406 73.7595C22.5406 73.708 22.5813 73.6775 22.7047 73.6775C22.8577 73.6775 22.9811 73.6566 23.0731 73.6367C23.2774 73.595 23.3291 73.3699 23.3694 73.0724C23.4207 72.6412 23.4207 71.831 23.4207 70.8873V69.0816C23.4207 67.5232 23.4207 67.2351 23.3999 66.9076C23.38 66.5583 23.2982 66.3948 22.9603 66.3225C22.8785 66.3017 22.7042 66.2919 22.5614 66.2919C22.4486 66.2919 22.3867 66.2715 22.3867 66.1997C22.3867 66.1279 22.4588 66.1075 22.6127 66.1075C23.1549 66.1075 23.8001 66.1381 24.0452 66.1381C24.2911 66.1381 24.9363 66.1075 25.2839 66.1075C25.4272 66.1075 25.4984 66.1279 25.4984 66.1997C25.4984 66.2715 25.437 66.2919 25.356 66.2919C25.2534 66.2919 25.1919 66.3017 25.0686 66.3225C24.7922 66.3739 24.7099 66.5481 24.69 66.9076C24.6692 67.2351 24.6692 67.5232 24.6692 69.0816V69.5333ZM32.2005 69.7899C32.2005 68.4673 32.2005 68.2208 32.1908 67.9438C32.17 67.6464 32.078 67.5436 31.8834 67.482C31.7767 67.4528 31.6663 67.4391 31.5557 67.4412C31.4637 67.4412 31.4124 67.4204 31.4124 67.3384C31.4124 67.287 31.4836 67.2666 31.6269 67.2666C31.9656 67.2666 32.5791 67.287 32.8351 67.287C33.0603 67.287 33.644 67.2666 33.9921 67.2666C34.1048 67.2666 34.1769 67.287 34.1769 67.3384C34.1769 67.4204 34.1256 67.4412 34.0328 67.4412C33.9408 67.4412 33.8696 67.451 33.767 67.4714C33.5219 67.5126 33.4499 67.6358 33.4291 67.9434C33.4092 68.22 33.4092 68.4664 33.4092 69.7895V71.3283C33.4092 72.1692 33.4092 72.8668 33.4499 73.236C33.4804 73.4722 33.5419 73.6057 33.8085 73.6464C33.9608 73.6673 34.1144 73.6775 34.2681 73.677C34.3707 73.677 34.4122 73.7284 34.4122 73.7692C34.4122 73.8313 34.3401 73.8618 34.2384 73.8618C33.6449 73.8618 33.0302 73.8313 32.7843 73.8313C32.5799 73.8313 31.9661 73.8618 31.6078 73.8618C31.4951 73.8618 31.434 73.8313 31.434 73.7692C31.434 73.7284 31.4646 73.677 31.5773 73.677C31.7104 73.677 31.8126 73.6673 31.8944 73.6464C32.0793 73.6057 32.1297 73.4824 32.1602 73.2262C32.2018 72.8668 32.2018 72.1696 32.2018 71.3283V69.7899H32.2005ZM38.0539 72.6726C38.0738 73.3499 38.1865 73.5547 38.3612 73.6163C38.5142 73.6677 38.6881 73.6779 38.8322 73.6779C38.934 73.6779 38.9852 73.7195 38.9852 73.7701C38.9852 73.8423 38.9034 73.8627 38.7801 73.8627C38.1971 73.8627 37.7774 73.8321 37.6134 73.8321C37.5316 73.8321 37.1017 73.8627 36.6413 73.8627C36.5188 73.8627 36.4369 73.8525 36.4369 73.7701C36.4369 73.7195 36.4984 73.6779 36.5802 73.6779C36.7028 73.6779 36.8668 73.6681 36.9893 73.6371C37.2255 73.5751 37.256 73.3393 37.2657 72.5804L37.3476 67.4106C37.3476 67.236 37.409 67.1132 37.5015 67.1132C37.6134 67.1132 37.7367 67.2462 37.8898 67.4004C38.0026 67.5134 39.3537 68.8981 40.6636 70.1803C41.2779 70.7854 42.4751 72.0166 42.6087 72.1394H42.6494L42.5574 68.2616C42.5468 67.7284 42.4645 67.5746 42.25 67.4922C42.1169 67.4416 41.9024 67.4416 41.779 67.4416C41.6662 67.4416 41.6357 67.4 41.6357 67.3486C41.6357 67.2772 41.7277 67.267 41.8608 67.267C42.3318 67.267 42.8122 67.2874 43.0067 67.2874C43.1093 67.2874 43.4472 67.267 43.8877 67.267C44.0102 67.267 44.092 67.2772 44.092 67.3486C44.092 67.4 44.0407 67.4416 43.939 67.4416C43.8461 67.4416 43.7749 67.4416 43.6626 67.4718C43.4167 67.5436 43.3446 67.6978 43.3349 68.1898L43.2331 73.6877C43.2331 73.8827 43.1611 73.9642 43.0898 73.9642C42.9359 73.9642 42.8126 73.872 42.7214 73.7798C42.1576 73.2564 41.0325 72.1798 40.0909 71.2667C39.1082 70.3227 38.156 69.2665 37.9818 69.1126H37.9513L38.0539 72.6726ZM52.617 73.2776C52.617 73.5135 52.617 73.5237 52.5043 73.5857C51.8997 73.8831 51.0099 73.9757 50.3036 73.9757C48.0928 73.9757 46.138 72.97 46.138 70.5598C46.138 69.1645 46.885 68.1903 47.7146 67.708C48.5739 67.205 49.3832 67.1438 50.14 67.1438C50.7644 67.1438 51.5525 67.2462 51.7374 67.2874C51.9214 67.3184 52.2385 67.3694 52.4534 67.3796C52.5551 67.3902 52.5759 67.4212 52.5759 67.4824C52.5759 67.5852 52.5145 67.821 52.5145 68.9181C52.5145 69.0515 52.4632 69.1135 52.3919 69.1135C52.3305 69.1135 52.3101 69.0723 52.2991 69.0005C52.2792 68.8055 52.2279 68.5289 51.9926 68.2825C51.7259 68.0054 51.0502 67.6163 50.0378 67.6163C49.546 67.6163 48.9216 67.626 48.2975 68.1286C47.7956 68.5391 47.4687 69.1853 47.4687 70.2522C47.4687 72.1292 48.6769 73.4935 50.6004 73.4935C50.8365 73.4935 51.0201 73.4935 51.2354 73.4009C51.3681 73.3393 51.4092 73.2471 51.4092 73.0937V72.2932C51.4092 71.862 51.4092 71.534 51.3986 71.2676C51.3889 70.9702 51.2969 70.8776 51.0103 70.7956C50.9382 70.7752 50.7852 70.765 50.6627 70.765C50.5809 70.765 50.5194 70.7238 50.5194 70.6723C50.5194 70.601 50.5906 70.5908 50.7131 70.5908C51.1841 70.5908 51.8294 70.6112 52.0952 70.6112C52.3818 70.6112 52.8528 70.5908 53.1491 70.5908C53.2725 70.5908 53.3339 70.601 53.3339 70.6723C53.3339 70.7238 53.2826 70.765 53.2212 70.765C53.1491 70.765 53.0779 70.7752 52.9753 70.7956C52.7294 70.8368 52.6382 70.9596 52.6276 71.2676C52.6179 71.534 52.6179 71.8828 52.6179 72.314V73.2776H52.617ZM55.9 73.7391C55.7368 73.6677 55.7063 73.6163 55.7063 73.3907C55.7063 72.8264 55.747 72.2112 55.7576 72.0472C55.7673 71.893 55.7983 71.78 55.8801 71.78C55.9721 71.78 55.9827 71.873 55.9827 71.9542C55.9827 72.0876 56.0234 72.3034 56.0738 72.4776C56.299 73.2364 56.9035 73.5135 57.5377 73.5135C58.4594 73.5135 58.9087 72.8876 58.9087 72.3442C58.9087 71.8412 58.7565 71.37 57.9061 70.7029L57.436 70.3341C56.31 69.4517 55.9208 68.7337 55.9208 67.903C55.9208 66.7746 56.8624 65.9644 58.2847 65.9644C58.9503 65.9644 59.3802 66.0668 59.6468 66.139C59.7388 66.1594 59.7901 66.19 59.7901 66.2618C59.7901 66.3952 59.7486 66.6926 59.7486 67.4922C59.7486 67.7182 59.718 67.8002 59.6358 67.8002C59.5646 67.8002 59.534 67.7386 59.534 67.6158C59.534 67.5236 59.4828 67.205 59.2674 66.9386C59.1143 66.7436 58.8167 66.4355 58.152 66.4355C57.3944 66.4355 56.934 66.877 56.934 67.4918C56.934 67.9638 57.1693 68.3232 58.0189 68.969L58.3055 69.1849C59.5442 70.1183 59.9839 70.8257 59.9839 71.8004C59.9839 72.3952 59.7596 73.103 59.0215 73.5853C58.5107 73.9128 57.9366 74.0059 57.3944 74.0059C56.8009 74.0063 56.3405 73.9341 55.9 73.7391ZM64.5378 67.7998L63.1965 67.8308C62.675 67.841 62.4597 67.9026 62.3261 68.0976C62.2589 68.1874 62.2072 68.2877 62.1731 68.3946C62.1523 68.4668 62.1324 68.5076 62.0705 68.5076C62.009 68.5076 61.9895 68.4562 61.9895 68.364C61.9895 68.2204 62.1633 67.3792 62.1841 67.3078C62.204 67.1948 62.2345 67.1434 62.2858 67.1434C62.3571 67.1434 62.4499 67.2152 62.675 67.2458C62.9408 67.2768 63.2787 67.287 63.575 67.287H67.229C67.5164 67.287 67.7102 67.2666 67.8433 67.2458C67.9866 67.2254 68.0586 67.2046 68.0883 67.2046C68.1502 67.2046 68.1604 67.256 68.1604 67.3898C68.1604 67.5742 68.1396 68.2204 68.1396 68.446C68.1299 68.5382 68.1099 68.5896 68.0586 68.5896C67.9866 68.5896 67.9658 68.5484 67.956 68.4154L67.9463 68.3232C67.9255 68.0976 67.6902 67.8308 66.8814 67.8202L65.7452 67.7994V71.3283C65.7452 72.1284 65.755 72.8158 65.7957 73.1952C65.827 73.4416 65.8783 73.6061 66.1441 73.6469C66.2967 73.6678 66.4505 73.678 66.6045 73.6775C66.7071 73.6775 66.7478 73.7289 66.7478 73.7697C66.7478 73.8317 66.6757 73.8623 66.574 73.8623C65.9805 73.8623 65.3768 73.8317 65.1207 73.8317C64.9164 73.8317 64.3017 73.8623 63.9435 73.8623C63.8307 73.8623 63.7696 73.8317 63.7696 73.7697C63.7696 73.7289 63.8002 73.6775 63.9129 73.6775C64.046 73.6775 64.1588 73.6677 64.23 73.6469C64.4149 73.6061 64.4662 73.4421 64.4967 73.1855C64.5382 72.8162 64.5382 72.1288 64.5382 71.3288V67.7998H64.5378ZM69.8277 70.5593C69.8277 69.0719 70.8719 67.1434 73.6042 67.1434C75.8761 67.1434 77.2887 68.4057 77.2887 70.4055C77.2887 72.4054 75.8354 73.9753 73.5122 73.9753C70.8918 73.9753 69.8277 72.1084 69.8277 70.5593ZM75.9486 70.7233C75.9486 68.7948 74.7917 67.6052 73.338 67.6052C72.3354 67.6052 71.1585 68.1384 71.1585 70.2925C71.1585 72.0876 72.1819 73.5033 73.8802 73.5033C74.5152 73.5033 75.9486 73.2058 75.9486 70.7233ZM80.6539 72.6726C80.6747 73.3499 80.787 73.5547 80.9613 73.6163C81.1151 73.6677 81.289 73.6779 81.4331 73.6779C81.5348 73.6779 81.5861 73.7195 81.5861 73.7701C81.5861 73.8423 81.5035 73.8627 81.3818 73.8627C80.798 73.8627 80.3783 73.8321 80.2143 73.8321C80.1325 73.8321 79.7026 73.8627 79.2422 73.8627C79.1188 73.8627 79.0378 73.8525 79.0378 73.7701C79.0378 73.7195 79.0985 73.6779 79.1811 73.6779C79.3036 73.6779 79.4677 73.6681 79.5902 73.6371C79.8255 73.5751 79.8569 73.3393 79.8666 72.5804L79.9476 67.4106C79.9476 67.236 80.0095 67.1132 80.1024 67.1132C80.2143 67.1132 80.3376 67.2462 80.4907 67.4004C80.6035 67.5134 81.9546 68.8981 83.2645 70.1803C83.8788 70.7854 85.076 72.0166 85.2096 72.1394H85.2503L85.1583 68.2616C85.1477 67.7284 85.0654 67.5746 84.8509 67.4922C84.7178 67.4416 84.5024 67.4416 84.3799 67.4416C84.2671 67.4416 84.2366 67.4 84.2366 67.3486C84.2366 67.2772 84.3286 67.267 84.4617 67.267C84.9319 67.267 85.4131 67.2874 85.6076 67.2874C85.7102 67.2874 86.0481 67.267 86.4877 67.267C86.6111 67.267 86.6929 67.2772 86.6929 67.3486C86.6929 67.4 86.6416 67.4416 86.539 67.4416C86.447 67.4416 86.375 67.4416 86.2626 67.4718C86.0176 67.5436 85.9455 67.6978 85.9358 68.1898L85.8332 73.6877C85.8332 73.8827 85.762 73.9642 85.6899 73.9642C85.5368 73.9642 85.4135 73.872 85.3223 73.7798C84.7585 73.2564 83.6334 72.1798 82.6909 71.2667C81.7091 70.3227 80.7573 69.2665 80.5835 69.1126H80.5522L80.6539 72.6726ZM89.8233 69.7899C89.8233 68.4673 89.8233 68.2208 89.8127 67.9438C89.7928 67.6464 89.711 67.5542 89.4244 67.4718C89.3523 67.4514 89.1993 67.4416 89.0657 67.4416C88.9729 67.4416 88.9127 67.4106 88.9127 67.3486C88.9127 67.287 88.9839 67.267 89.117 67.267C89.5872 67.267 90.1603 67.2874 90.4168 67.2874C90.7026 67.2874 92.6989 67.2976 92.8727 67.2874C93.0368 67.2776 93.1801 67.2462 93.2521 67.236C93.3026 67.2262 93.3539 67.1952 93.3946 67.1952C93.4467 67.1952 93.4565 67.236 93.4565 67.2772C93.4565 67.3388 93.4052 67.4416 93.3852 67.8414C93.3746 67.9336 93.3539 68.3126 93.3339 68.4159C93.3233 68.4566 93.3026 68.5595 93.2314 68.5595C93.1695 68.5595 93.1593 68.5183 93.1593 68.4465C93.1593 68.3848 93.1495 68.231 93.0987 68.1282C93.0266 67.9748 92.9545 67.8516 92.5043 67.8108C92.3512 67.79 91.2766 67.7692 91.0917 67.7692C91.0502 67.7692 91.0303 67.7998 91.0303 67.8512V70.0053C91.0303 70.0567 91.0409 70.0975 91.0917 70.0975C91.2961 70.0975 92.4636 70.0975 92.6684 70.0767C92.8829 70.0567 93.0062 70.0257 93.0991 69.9437C93.1695 69.8817 93.2008 69.8303 93.2415 69.8303C93.2822 69.8303 93.3136 69.8715 93.3136 69.9229C93.3136 69.9743 93.2928 70.1179 93.2415 70.5589C93.2218 70.7533 93.2083 70.9483 93.2008 71.1435C93.2008 71.2153 93.1911 71.3385 93.108 71.3385C93.0465 71.3385 93.027 71.308 93.027 71.2667C93.0164 71.1741 93.0164 71.0615 92.9956 70.9485C92.9452 70.7743 92.8324 70.6405 92.4937 70.6099C92.3305 70.5895 91.3071 70.5691 91.082 70.5691C91.0413 70.5691 91.0307 70.6099 91.0307 70.6613V71.3594C91.0307 71.6563 91.0209 72.3952 91.0307 72.6514C91.0506 73.2458 91.3279 73.3796 92.2487 73.3796C92.4848 73.3796 92.863 73.3699 93.0991 73.2666C93.3234 73.1642 93.4259 72.9794 93.4874 72.6204C93.5082 72.5282 93.5281 72.487 93.5892 72.487C93.6612 72.487 93.671 72.6 93.671 72.6922C93.671 72.8868 93.5998 73.482 93.5485 73.6562C93.487 73.8822 93.4052 73.8822 93.0673 73.8822C92.3915 73.8822 91.8493 73.872 91.4097 73.8512C90.9692 73.8415 90.6322 73.8308 90.3655 73.8308C90.2629 73.8308 90.0683 73.841 89.8538 73.841C89.6385 73.8508 89.4134 73.8614 89.2294 73.8614C89.1166 73.8614 89.0555 73.8308 89.0555 73.7688C89.0555 73.728 89.0852 73.6766 89.1988 73.6766C89.332 73.6766 89.4341 73.6668 89.516 73.646C89.6999 73.6052 89.7512 73.4412 89.7826 73.1846C89.8233 72.8154 89.8233 72.128 89.8233 71.3279V69.7899ZM96.0243 73.2059C96.0243 72.9492 96.2083 72.58 96.6487 72.58C96.9964 72.58 97.2724 72.8162 97.2724 73.1748C97.2724 73.5334 97.0273 73.8313 96.639 73.8313C96.2083 73.8313 96.0243 73.4931 96.0243 73.2059ZM100.671 73.0312C99.78 72.2826 99.5451 71.2978 99.5451 70.4569C99.5451 69.8621 99.7397 68.8361 100.599 68.067C101.254 67.4918 102.114 67.1434 103.455 67.1434C104.018 67.1434 104.355 67.185 104.765 67.2356C105.103 67.287 105.4 67.3486 105.665 67.3792C105.768 67.3898 105.798 67.4306 105.798 67.482C105.798 67.5542 105.778 67.6562 105.757 67.9642C105.736 68.2514 105.736 68.7337 105.727 68.9079C105.716 69.0315 105.686 69.1237 105.603 69.1237C105.532 69.1237 105.511 69.0515 105.511 68.9384C105.499 68.6345 105.376 68.3458 105.164 68.1282C104.857 67.8312 104.253 67.6158 103.424 67.6158C102.636 67.6158 102.134 67.7594 101.725 68.1078C101.059 68.6823 100.896 69.5235 100.896 70.3749C100.896 72.447 102.492 73.4315 103.699 73.4315C104.498 73.4315 104.938 73.3699 105.296 72.9696C105.45 72.7954 105.573 72.5494 105.603 72.385C105.624 72.252 105.645 72.2108 105.716 72.2108C105.778 72.2108 105.819 72.2928 105.819 72.3646C105.819 72.4666 105.716 73.2262 105.624 73.5237C105.583 73.6775 105.542 73.7191 105.389 73.7803C105.03 73.9239 104.345 73.9753 103.762 73.9753C102.533 73.9753 101.49 73.7191 100.671 73.0312ZM107.885 70.5593C107.885 69.0719 108.929 67.1434 111.661 67.1434C113.933 67.1434 115.346 68.4057 115.346 70.4055C115.346 72.4054 113.893 73.9753 111.569 73.9753C108.949 73.9753 107.885 72.1084 107.885 70.5593ZM114.005 70.7233C114.005 68.7948 112.848 67.6052 111.395 67.6052C110.392 67.6052 109.215 68.1384 109.215 70.2925C109.215 72.0876 110.239 73.5033 111.938 73.5033C112.572 73.5033 114.005 73.2058 114.005 70.7233ZM118.743 67.3384C118.763 67.1948 118.845 67.1128 118.917 67.1128C119.009 67.1128 119.07 67.154 119.193 67.3898L121.609 72.2108L124.024 67.3286C124.095 67.185 124.177 67.1128 124.259 67.1128C124.331 67.1128 124.433 67.205 124.463 67.3898L125.282 72.7546C125.365 73.298 125.447 73.5338 125.723 73.6158C125.979 73.6877 126.122 73.6979 126.235 73.6979C126.316 73.6979 126.378 73.7284 126.378 73.7798C126.378 73.8512 126.275 73.8822 126.143 73.8822C125.917 73.8822 124.637 73.8512 124.279 73.8308C124.065 73.8206 124.013 73.7798 124.013 73.7284C124.013 73.6872 124.055 73.6562 124.116 73.6362C124.166 73.6154 124.187 73.5126 124.157 73.2666L123.655 69.5023H123.624L121.69 73.3592C121.485 73.7692 121.434 73.8512 121.331 73.8512C121.218 73.8512 121.116 73.677 120.973 73.4102C120.759 73.0104 120.042 71.6767 119.94 71.4307C119.868 71.2667 119.336 70.2101 119.039 69.6051H119.008L118.577 72.9692C118.558 73.123 118.548 73.236 118.548 73.3796C118.548 73.5436 118.67 73.6057 118.823 73.6362C118.977 73.6668 119.059 73.677 119.141 73.677C119.223 73.677 119.285 73.7187 119.285 73.759C119.285 73.841 119.203 73.8614 119.069 73.8614C118.691 73.8614 118.281 73.8308 118.117 73.8308C117.943 73.8308 117.513 73.8614 117.227 73.8614C117.134 73.8614 117.064 73.841 117.064 73.759C117.064 73.7182 117.114 73.677 117.206 73.677C117.278 73.677 117.339 73.677 117.482 73.6562C117.728 73.6256 117.81 73.2768 117.851 72.99L118.743 67.3384ZM128.158 73.2059C128.158 72.9492 128.342 72.58 128.781 72.58C129.129 72.58 129.407 72.8162 129.407 73.1748C129.407 73.5334 129.161 73.8313 128.772 73.8313C128.342 73.8313 128.158 73.4931 128.158 73.2059ZM133.858 67.7998L132.517 67.8308C131.995 67.841 131.779 67.9026 131.646 68.0976C131.579 68.1875 131.527 68.2878 131.493 68.3946C131.472 68.4668 131.452 68.5076 131.391 68.5076C131.33 68.5076 131.309 68.4562 131.309 68.364C131.309 68.2204 131.483 67.3792 131.504 67.3078C131.524 67.1948 131.554 67.1434 131.606 67.1434C131.678 67.1434 131.77 67.2152 131.995 67.2458C132.261 67.2768 132.598 67.287 132.896 67.287H136.55C136.836 67.287 137.031 67.2666 137.163 67.2458C137.306 67.2254 137.378 67.2046 137.408 67.2046C137.47 67.2046 137.48 67.256 137.48 67.3898C137.48 67.5742 137.46 68.2204 137.46 68.446C137.45 68.5382 137.429 68.5896 137.378 68.5896C137.306 68.5896 137.286 68.5484 137.276 68.4154L137.266 68.3232C137.245 68.0976 137.01 67.8308 136.202 67.8202L135.065 67.7994V71.3283C135.065 72.1284 135.075 72.8158 135.116 73.1952C135.147 73.4416 135.197 73.6061 135.464 73.6469C135.587 73.6677 135.791 73.6775 135.925 73.6775C136.026 73.6775 136.068 73.7289 136.068 73.7697C136.068 73.8317 135.996 73.8623 135.895 73.8623C135.301 73.8623 134.697 73.8317 134.44 73.8317C134.236 73.8317 133.621 73.8623 133.263 73.8623C133.15 73.8623 133.089 73.8317 133.089 73.7697C133.089 73.7289 133.12 73.6775 133.233 73.6775C133.366 73.6775 133.479 73.6677 133.551 73.6469C133.735 73.6061 133.786 73.4421 133.816 73.1855C133.858 72.8162 133.858 72.1288 133.858 71.3288L133.858 67.7998ZM139.639 68.118C139.526 67.7998 139.454 67.595 139.322 67.5126C139.229 67.451 139.055 67.4412 138.974 67.4412C138.881 67.4412 138.83 67.4102 138.83 67.3482C138.83 67.2866 138.902 67.2666 139.035 67.2666C139.496 67.2666 139.997 67.287 140.078 67.287C140.16 67.287 140.601 67.2666 141.123 67.2666C141.256 67.2666 141.316 67.287 141.316 67.3482C141.316 67.4102 141.246 67.4412 141.153 67.4412C141.081 67.4412 141 67.451 140.928 67.482C140.846 67.5126 140.837 67.564 140.837 67.6562C140.837 67.7692 140.918 68.056 141.031 68.4562C141.184 69.0315 142.003 71.667 142.136 72.0672H142.167L143.886 67.6052C143.978 67.3592 144.071 67.287 144.152 67.287C144.255 67.287 144.336 67.4204 144.448 67.6978L146.251 72.0056H146.281C146.454 71.503 147.141 69.2053 147.457 68.1903C147.519 67.9855 147.55 67.8108 147.55 67.6876C147.55 67.5436 147.468 67.4416 147.109 67.4416C147.029 67.4416 146.956 67.4 146.956 67.3486C146.956 67.287 147.029 67.267 147.172 67.267C147.642 67.267 148.051 67.2874 148.133 67.2874C148.195 67.2874 148.584 67.267 148.881 67.267C148.984 67.267 149.045 67.2874 149.045 67.3388C149.045 67.4004 149.004 67.4416 148.922 67.4416C148.83 67.4416 148.707 67.4514 148.605 67.4824C148.39 67.5644 148.287 67.8928 148.103 68.395C147.684 69.4929 146.762 72.2626 146.322 73.5649C146.22 73.8729 146.17 73.9757 146.035 73.9757C145.913 73.9757 145.851 73.8729 145.718 73.5551L143.887 69.2465H143.866C143.713 69.6157 142.505 72.7134 142.136 73.5135C141.972 73.8729 141.922 73.9757 141.789 73.9757C141.676 73.9757 141.624 73.8831 141.543 73.6571L139.639 68.118Z" fill="#37302E"/>
  <path d="M87.3344 54.3333C109.244 52.9499 128.986 54.9451 140.289 56.4972C126.232 56.0625 107.174 55.1945 86.9973 56.4972C66.8161 57.7969 49.0555 60.9889 35.082 63.3206C46.3822 60.2131 65.4336 55.8042 87.3344 54.3333Z" fill="#B81C22"/>
</svg>
