<svg width="48" height="33" viewBox="0 0 48 33" fill="none" xmlns="http://www.w3.org/2000/svg">
<g id="youtube_icon 1" clip-path="url(#clip0_17_3614)">
<path id="youtube_icon" d="M24 32.7058C23.9624 32.7058 20.2043 32.7058 16.0329 32.5835C9.05437 32.3813 6.30128 32.006 5.21911 31.727C4.20608 31.4654 3.28257 30.956 2.54038 30.2493C1.79819 29.5426 1.26316 28.6633 0.988468 27.6988C0.706557 26.6898 0.327776 24.687 0.123756 20.8752C0 18.5957 0 16.7243 0 16.7058C0 16.6874 0 14.8235 0.123756 12.5507C0.237232 10.4508 0.478023 7.56021 0.988468 5.71287C1.26739 4.74138 1.80729 3.85584 2.55499 3.14346C3.29087 2.43207 4.20926 1.91619 5.21911 1.64699C6.29021 1.37856 9.03301 1.0179 16.0179 0.823646C20.1952 0.705811 23.9605 0.705811 24 0.705811C24.0395 0.705811 27.8044 0.705811 31.9821 0.828163C38.967 1.03033 41.7098 1.40567 42.7809 1.68463C43.794 1.94608 44.7175 2.45548 45.4597 3.16218C46.202 3.86888 46.7369 4.74825 47.0115 5.71287C47.3045 6.73273 47.6952 8.74986 47.8913 12.5692C48.0099 14.8509 48 16.7246 48 16.7431C48 16.7615 48 18.6254 47.8762 20.8986C47.7636 22.9981 47.5204 25.8887 47.0111 27.7364C46.7365 28.701 46.2015 29.5803 45.4593 30.287C44.7171 30.9937 43.7935 31.5031 42.7805 31.7646C41.7098 32.0331 38.9666 32.3933 31.9817 32.588C27.8044 32.7058 24.0376 32.7058 24 32.7058ZM19.2158 9.85405V23.5576L31.71 16.7058L19.2158 9.85405Z" fill="#B39B17"/>
</g>
<defs>
<clipPath id="clip0_17_3614">
<rect width="48" height="32" fill="white" transform="translate(0 0.705811)"/>
</clipPath>
</defs>
</svg>
