<svg xmlns="http://www.w3.org/2000/svg" width="24" height="16" viewBox="0 0 24 16" fill="none">
  <g clip-path="url(#clip0_26_1273)">
    <path d="M12 16C11.9812 16 10.1021 16 8.01647 15.9388C4.52718 15.8377 3.15064 15.6501 2.60956 15.5106C2.10304 15.3798 1.64129 15.1251 1.27019 14.7718C0.899096 14.4184 0.631581 13.9788 0.494234 13.4965C0.353278 12.992 0.163888 11.9906 0.0618781 10.0847C0 8.94494 0 8.00922 0 8C0 7.99078 0 7.05882 0.0618781 5.92245C0.118616 4.87247 0.239012 3.4272 0.494234 2.50353C0.633697 2.01779 0.903647 1.57501 1.2775 1.21882C1.64543 0.863127 2.10463 0.605189 2.60956 0.470588C3.14511 0.336376 4.51651 0.156047 8.00896 0.0589176C10.0976 0 11.9802 0 12 0C12.0198 0 13.9022 0 15.991 0.0611765C19.4835 0.162259 20.8549 0.349929 21.3904 0.489412C21.897 0.620136 22.3588 0.874835 22.7299 1.22818C23.101 1.58153 23.3685 2.02122 23.5058 2.50353C23.6523 3.01346 23.8476 4.02202 23.9456 5.93167C24.0049 7.07256 24 8.00941 24 8.01863C24 8.02786 24 8.95981 23.9381 10.0964C23.8818 11.1462 23.7602 12.5914 23.5056 13.5153C23.3682 13.9976 23.1007 14.4373 22.7296 14.7906C22.3585 15.1439 21.8968 15.3987 21.3902 15.5294C20.8549 15.6636 19.4833 15.8438 15.9908 15.9411C13.9022 16 12.0188 16 12 16ZM9.60791 4.57412V11.4259L15.855 8L9.60791 4.57412Z" fill="white"/>
  </g>
  <defs>
    <clipPath id="clip0_26_1273">
      <rect width="24" height="16" fill="white"/>
    </clipPath>
  </defs>
</svg>
